<svg id="visual" viewBox="0 0 960 540" width="960" height="540" xmlns="http://www.w3.org/2000/svg" xmlns:xlink="http://www.w3.org/1999/xlink" version="1.1"><rect x="0" y="0" width="960" height="540" fill="#ffffff"></rect><path d="M0 379L22.8 369.5C45.7 360 91.3 341 137 330.3C182.7 319.7 228.3 317.3 274 316.3C319.7 315.3 365.3 315.7 411.2 323.5C457 331.3 503 346.7 548.8 362.5C594.7 378.3 640.3 394.7 686 385.8C731.7 377 777.3 343 823 324C868.7 305 914.3 301 937.2 299L960 297L960 541L937.2 541C914.3 541 868.7 541 823 541C777.3 541 731.7 541 686 541C640.3 541 594.7 541 548.8 541C503 541 457 541 411.2 541C365.3 541 319.7 541 274 541C228.3 541 182.7 541 137 541C91.3 541 45.7 541 22.8 541L0 541Z" fill="#ff6209"></path><path d="M0 471L22.8 470.8C45.7 470.7 91.3 470.3 137 457.5C182.7 444.7 228.3 419.3 274 408.2C319.7 397 365.3 400 411.2 403.8C457 407.7 503 412.3 548.8 409.3C594.7 406.3 640.3 395.7 686 398C731.7 400.3 777.3 415.7 823 422.5C868.7 429.3 914.3 427.7 937.2 426.8L960 426L960 541L937.2 541C914.3 541 868.7 541 823 541C777.3 541 731.7 541 686 541C640.3 541 594.7 541 548.8 541C503 541 457 541 411.2 541C365.3 541 319.7 541 274 541C228.3 541 182.7 541 137 541C91.3 541 45.7 541 22.8 541L0 541Z" fill="#001fff"></path></svg>